<?xml version="1.0" encoding="UTF-8" standalone="no"?>
<!DOCTYPE svg PUBLIC "-//W3C//DTD SVG 1.1//EN"
 "http://www.w3.org/Graphics/SVG/1.1/DTD/svg11.dtd">
<!-- Generated by graphviz version 2.40.1 (20161225.0304)
 -->
<!-- Title: dependencies Pages: 1 -->
<svg width="504pt" height="211pt"
 viewBox="0.00 0.00 504.00 211.00" xmlns="http://www.w3.org/2000/svg" xmlns:xlink="http://www.w3.org/1999/xlink">
<g id="graph0" class="graph" transform="scale(1 1) rotate(0) translate(4 207)">
<title>dependencies</title>
<polygon fill="#ffffff" stroke="transparent" points="-4,4 -4,-207 500,-207 500,4 -4,4"/>
<text text-anchor="start" x="227.0091" y="-42.4" font-family="sans-serif" font-weight="bold" font-size="14.00" fill="#000000">Legend</text>
<polygon fill="#ffffb3" stroke="transparent" points="14,-10 14,-30 34,-30 34,-10 14,-10"/>
<text text-anchor="start" x="37.629" y="-15.4" font-family="sans-serif" font-size="14.00" fill="#000000"> &#160;Declarations</text>
<polygon fill="#8dd3c7" stroke="transparent" points="127,-10 127,-30 147,-30 147,-10 127,-10"/>
<text text-anchor="start" x="150.7251" y="-15.4" font-family="sans-serif" font-size="14.00" fill="#000000"> &#160;Module</text>
<polygon fill="#80b1d3" stroke="transparent" points="213,-10 213,-30 233,-30 233,-10 213,-10"/>
<text text-anchor="start" x="236.7812" y="-15.4" font-family="sans-serif" font-size="14.00" fill="#000000"> &#160;Bootstrap</text>
<polygon fill="#fdb462" stroke="transparent" points="310,-10 310,-30 330,-30 330,-10 310,-10"/>
<text text-anchor="start" x="333.6732" y="-15.4" font-family="sans-serif" font-size="14.00" fill="#000000"> &#160;Providers</text>
<polygon fill="#fb8072" stroke="transparent" points="406,-10 406,-30 426,-30 426,-10 406,-10"/>
<text text-anchor="start" x="429.7258" y="-15.4" font-family="sans-serif" font-size="14.00" fill="#000000"> &#160;Exports</text>
<g id="clust1" class="cluster">
<title>cluster_ModelModule</title>
<polygon fill="none" stroke="#000000" stroke-dasharray="1,5" points="61.5,-70 61.5,-195 434.5,-195 434.5,-70 61.5,-70"/>
</g>
<g id="clust6" class="cluster">
<title>cluster_ModelModule_providers</title>
<polygon fill="none" stroke="#000000" points="69.5,-78 69.5,-130 426.5,-130 426.5,-78 69.5,-78"/>
</g>
<!-- ProductRepository -->
<g id="node1" class="node">
<title>ProductRepository</title>
<ellipse fill="#fdb462" stroke="#000000" cx="335.5" cy="-104" rx="83.4079" ry="18"/>
<text text-anchor="middle" x="335.5" y="-99.8" font-family="Times,serif" font-size="14.00" fill="#000000">ProductRepository</text>
</g>
<!-- ModelModule -->
<g id="node3" class="node">
<title>ModelModule</title>
<polygon fill="#8dd3c7" stroke="#000000" points="293.5997,-187 290.5997,-191 269.5997,-191 266.5997,-187 197.4003,-187 197.4003,-151 293.5997,-151 293.5997,-187"/>
<text text-anchor="middle" x="245.5" y="-164.8" font-family="Times,serif" font-size="14.00" fill="#000000">ModelModule</text>
</g>
<!-- ProductRepository&#45;&gt;ModelModule -->
<g id="edge1" class="edge">
<title>ProductRepository&#45;&gt;ModelModule</title>
<path fill="none" stroke="#000000" d="M272.7979,-115.922C272.7979,-115.922 272.7979,-140.7669 272.7979,-140.7669"/>
<polygon fill="#000000" stroke="#000000" points="269.298,-140.7669 272.7979,-150.7669 276.298,-140.7669 269.298,-140.7669"/>
</g>
<!-- StaticDataSource -->
<g id="node2" class="node">
<title>StaticDataSource</title>
<ellipse fill="#fdb462" stroke="#000000" cx="155.5" cy="-104" rx="78.1424" ry="18"/>
<text text-anchor="middle" x="155.5" y="-99.8" font-family="Times,serif" font-size="14.00" fill="#000000">StaticDataSource</text>
</g>
<!-- StaticDataSource&#45;&gt;ModelModule -->
<g id="edge2" class="edge">
<title>StaticDataSource&#45;&gt;ModelModule</title>
<path fill="none" stroke="#000000" d="M215.5107,-115.6207C215.5107,-115.6207 215.5107,-140.8534 215.5107,-140.8534"/>
<polygon fill="#000000" stroke="#000000" points="212.0108,-140.8533 215.5107,-150.8534 219.0108,-140.8534 212.0108,-140.8533"/>
</g>
</g>
</svg>
