<?xml version="1.0" encoding="UTF-8" standalone="no"?>
<!DOCTYPE svg PUBLIC "-//W3C//DTD SVG 1.1//EN"
 "http://www.w3.org/Graphics/SVG/1.1/DTD/svg11.dtd">
<!-- Generated by graphviz version 2.40.1 (20161225.0304)
 -->
<!-- Title: dependencies Pages: 1 -->
<svg width="2592pt" height="284pt"
 viewBox="0.00 0.00 2592.00 284.00" xmlns="http://www.w3.org/2000/svg" xmlns:xlink="http://www.w3.org/1999/xlink">
<g id="graph0" class="graph" transform="scale(1 1) rotate(0) translate(4 280)">
<title>dependencies</title>
<polygon fill="#ffffff" stroke="transparent" points="-4,4 -4,-280 2588,-280 2588,4 -4,4"/>
<text text-anchor="start" x="1271.0091" y="-42.4" font-family="sans-serif" font-weight="bold" font-size="14.00" fill="#000000">Legend</text>
<polygon fill="#ffffb3" stroke="transparent" points="1058,-10 1058,-30 1078,-30 1078,-10 1058,-10"/>
<text text-anchor="start" x="1081.629" y="-15.4" font-family="sans-serif" font-size="14.00" fill="#000000"> &#160;Declarations</text>
<polygon fill="#8dd3c7" stroke="transparent" points="1171,-10 1171,-30 1191,-30 1191,-10 1171,-10"/>
<text text-anchor="start" x="1194.7251" y="-15.4" font-family="sans-serif" font-size="14.00" fill="#000000"> &#160;Module</text>
<polygon fill="#80b1d3" stroke="transparent" points="1257,-10 1257,-30 1277,-30 1277,-10 1257,-10"/>
<text text-anchor="start" x="1280.7812" y="-15.4" font-family="sans-serif" font-size="14.00" fill="#000000"> &#160;Bootstrap</text>
<polygon fill="#fdb462" stroke="transparent" points="1354,-10 1354,-30 1374,-30 1374,-10 1354,-10"/>
<text text-anchor="start" x="1377.6732" y="-15.4" font-family="sans-serif" font-size="14.00" fill="#000000"> &#160;Providers</text>
<polygon fill="#fb8072" stroke="transparent" points="1450,-10 1450,-30 1470,-30 1470,-10 1450,-10"/>
<text text-anchor="start" x="1473.7258" y="-15.4" font-family="sans-serif" font-size="14.00" fill="#000000"> &#160;Exports</text>
<g id="clust1" class="cluster">
<title>cluster_AppModule</title>
<polygon fill="none" stroke="#000000" stroke-dasharray="1,5" points="8,-70 8,-268 2576,-268 2576,-70 8,-70"/>
</g>
<g id="clust2" class="cluster">
<title>cluster_AppModule_declarations</title>
<polygon fill="none" stroke="#000000" points="654,-78 654,-130 2568,-130 2568,-78 654,-78"/>
</g>
<g id="clust15" class="cluster">
<title>cluster_AppModule_imports</title>
<polygon fill="none" stroke="#000000" points="16,-78 16,-130 646,-130 646,-78 16,-78"/>
</g>
<g id="clust17" class="cluster">
<title>cluster_AppModule_bootstrap</title>
<polygon fill="none" stroke="#000000" points="1153,-208 1153,-260 1277,-260 1277,-208 1153,-208"/>
</g>
<!-- AppComponent -->
<g id="node1" class="node">
<title>AppComponent</title>
<polygon fill="#ffffb3" stroke="#000000" points="2559.9399,-122 2454.0601,-122 2454.0601,-86 2559.9399,-86 2559.9399,-122"/>
<text text-anchor="middle" x="2507" y="-99.8" font-family="Times,serif" font-size="14.00" fill="#000000">AppComponent</text>
</g>
<!-- AppModule -->
<g id="node13" class="node">
<title>AppModule</title>
<polygon fill="#8dd3c7" stroke="#000000" points="1256.6571,-187 1253.6571,-191 1232.6571,-191 1229.6571,-187 1173.3429,-187 1173.3429,-151 1256.6571,-151 1256.6571,-187"/>
<text text-anchor="middle" x="1215" y="-164.8" font-family="Times,serif" font-size="14.00" fill="#000000">AppModule</text>
</g>
<!-- AppComponent&#45;&gt;AppModule -->
<g id="edge1" class="edge">
<title>AppComponent&#45;&gt;AppModule</title>
<path fill="none" stroke="#000000" d="M2507,-122.3228C2507,-145.6602 2507,-183 2507,-183 2507,-183 1266.8875,-183 1266.8875,-183"/>
<polygon fill="#000000" stroke="#000000" points="1266.8875,-179.5001 1256.8875,-183 1266.8875,-186.5001 1266.8875,-179.5001"/>
</g>
<!-- HeaderComponent -->
<g id="node2" class="node">
<title>HeaderComponent</title>
<polygon fill="#ffffb3" stroke="#000000" points="2435.7437,-122 2314.2563,-122 2314.2563,-86 2435.7437,-86 2435.7437,-122"/>
<text text-anchor="middle" x="2375" y="-99.8" font-family="Times,serif" font-size="14.00" fill="#000000">HeaderComponent</text>
</g>
<!-- HeaderComponent&#45;&gt;AppModule -->
<g id="edge2" class="edge">
<title>HeaderComponent&#45;&gt;AppModule</title>
<path fill="none" stroke="#000000" d="M2375,-122.1554C2375,-144.3519 2375,-179 2375,-179 2375,-179 1266.9703,-179 1266.9703,-179"/>
<polygon fill="#000000" stroke="#000000" points="1266.9704,-175.5001 1256.9703,-179 1266.9703,-182.5001 1266.9704,-175.5001"/>
</g>
<!-- RecipesComponent -->
<g id="node3" class="node">
<title>RecipesComponent</title>
<polygon fill="#ffffb3" stroke="#000000" points="2295.6485,-122 2170.3515,-122 2170.3515,-86 2295.6485,-86 2295.6485,-122"/>
<text text-anchor="middle" x="2233" y="-99.8" font-family="Times,serif" font-size="14.00" fill="#000000">RecipesComponent</text>
</g>
<!-- RecipesComponent&#45;&gt;AppModule -->
<g id="edge3" class="edge">
<title>RecipesComponent&#45;&gt;AppModule</title>
<path fill="none" stroke="#000000" d="M2233,-122.2843C2233,-143.3211 2233,-175 2233,-175 2233,-175 1266.8047,-175 1266.8047,-175"/>
<polygon fill="#000000" stroke="#000000" points="1266.8047,-171.5001 1256.8047,-175 1266.8046,-178.5001 1266.8047,-171.5001"/>
</g>
<!-- RecipeListComponent -->
<g id="node4" class="node">
<title>RecipeListComponent</title>
<polygon fill="#ffffb3" stroke="#000000" points="2151.9818,-122 2010.0182,-122 2010.0182,-86 2151.9818,-86 2151.9818,-122"/>
<text text-anchor="middle" x="2081" y="-99.8" font-family="Times,serif" font-size="14.00" fill="#000000">RecipeListComponent</text>
</g>
<!-- RecipeListComponent&#45;&gt;AppModule -->
<g id="edge4" class="edge">
<title>RecipeListComponent&#45;&gt;AppModule</title>
<path fill="none" stroke="#000000" d="M2081,-122.308C2081,-142.1455 2081,-171 2081,-171 2081,-171 1266.769,-171 1266.769,-171"/>
<polygon fill="#000000" stroke="#000000" points="1266.769,-167.5001 1256.769,-171 1266.7689,-174.5001 1266.769,-167.5001"/>
</g>
<!-- RecipeItemComponent -->
<g id="node5" class="node">
<title>RecipeItemComponent</title>
<polygon fill="#ffffb3" stroke="#000000" points="1991.8599,-122 1846.1401,-122 1846.1401,-86 1991.8599,-86 1991.8599,-122"/>
<text text-anchor="middle" x="1919" y="-99.8" font-family="Times,serif" font-size="14.00" fill="#000000">RecipeItemComponent</text>
</g>
<!-- RecipeItemComponent&#45;&gt;AppModule -->
<g id="edge5" class="edge">
<title>RecipeItemComponent&#45;&gt;AppModule</title>
<path fill="none" stroke="#000000" d="M1919,-122.2222C1919,-140.8285 1919,-167 1919,-167 1919,-167 1266.6698,-167 1266.6698,-167"/>
<polygon fill="#000000" stroke="#000000" points="1266.6698,-163.5001 1256.6698,-167 1266.6697,-170.5001 1266.6698,-163.5001"/>
</g>
<!-- RecipeDetailComponent -->
<g id="node6" class="node">
<title>RecipeDetailComponent</title>
<polygon fill="#ffffb3" stroke="#000000" points="1828.4115,-122 1673.5885,-122 1673.5885,-86 1828.4115,-86 1828.4115,-122"/>
<text text-anchor="middle" x="1751" y="-99.8" font-family="Times,serif" font-size="14.00" fill="#000000">RecipeDetailComponent</text>
</g>
<!-- RecipeDetailComponent&#45;&gt;AppModule -->
<g id="edge6" class="edge">
<title>RecipeDetailComponent&#45;&gt;AppModule</title>
<path fill="none" stroke="#000000" d="M1751,-122.0225C1751,-139.3734 1751,-163 1751,-163 1751,-163 1267.059,-163 1267.059,-163"/>
<polygon fill="#000000" stroke="#000000" points="1267.0591,-159.5001 1257.059,-163 1267.059,-166.5001 1267.0591,-159.5001"/>
</g>
<!-- ShoppingListComponent -->
<g id="node7" class="node">
<title>ShoppingListComponent</title>
<polygon fill="#ffffb3" stroke="#000000" points="1655.2841,-122 1498.7159,-122 1498.7159,-86 1655.2841,-86 1655.2841,-122"/>
<text text-anchor="middle" x="1577" y="-99.8" font-family="Times,serif" font-size="14.00" fill="#000000">ShoppingListComponent</text>
</g>
<!-- ShoppingListComponent&#45;&gt;AppModule -->
<g id="edge7" class="edge">
<title>ShoppingListComponent&#45;&gt;AppModule</title>
<path fill="none" stroke="#000000" d="M1577,-122.0091C1577,-138.0494 1577,-159 1577,-159 1577,-159 1266.8796,-159 1266.8796,-159"/>
<polygon fill="#000000" stroke="#000000" points="1266.8797,-155.5001 1256.8796,-159 1266.8796,-162.5001 1266.8797,-155.5001"/>
</g>
<!-- ShoppingListAddComponent -->
<g id="node8" class="node">
<title>ShoppingListAddComponent</title>
<polygon fill="#ffffb3" stroke="#000000" points="1480.3906,-122 1299.6094,-122 1299.6094,-86 1480.3906,-86 1480.3906,-122"/>
<text text-anchor="middle" x="1390" y="-99.8" font-family="Times,serif" font-size="14.00" fill="#000000">ShoppingListAddComponent</text>
</g>
<!-- ShoppingListAddComponent&#45;&gt;AppModule -->
<g id="edge8" class="edge">
<title>ShoppingListAddComponent&#45;&gt;AppModule</title>
<path fill="none" stroke="#000000" d="M1390,-122.1243C1390,-136.7832 1390,-155 1390,-155 1390,-155 1266.9169,-155 1266.9169,-155"/>
<polygon fill="#000000" stroke="#000000" points="1266.9169,-151.5001 1256.9169,-155 1266.9168,-158.5001 1266.9169,-151.5001"/>
</g>
<!-- DirectiveComponent -->
<g id="node9" class="node">
<title>DirectiveComponent</title>
<polygon fill="#ffffb3" stroke="#000000" points="1281.9158,-122 1148.0842,-122 1148.0842,-86 1281.9158,-86 1281.9158,-122"/>
<text text-anchor="middle" x="1215" y="-99.8" font-family="Times,serif" font-size="14.00" fill="#000000">DirectiveComponent</text>
</g>
<!-- DirectiveComponent&#45;&gt;AppModule -->
<g id="edge9" class="edge">
<title>DirectiveComponent&#45;&gt;AppModule</title>
<path fill="none" stroke="#000000" d="M1215,-122.1061C1215,-122.1061 1215,-140.991 1215,-140.991"/>
<polygon fill="#000000" stroke="#000000" points="1211.5001,-140.9909 1215,-150.991 1218.5001,-140.991 1211.5001,-140.9909"/>
</g>
<!-- HighlightDirective -->
<g id="node10" class="node">
<title>HighlightDirective</title>
<polygon fill="#ffffb3" stroke="#000000" points="1129.7521,-122 1008.2479,-122 1008.2479,-86 1129.7521,-86 1129.7521,-122"/>
<text text-anchor="middle" x="1069" y="-99.8" font-family="Times,serif" font-size="14.00" fill="#000000">HighlightDirective</text>
</g>
<!-- HighlightDirective&#45;&gt;AppModule -->
<g id="edge10" class="edge">
<title>HighlightDirective&#45;&gt;AppModule</title>
<path fill="none" stroke="#000000" d="M1069,-122.1243C1069,-136.7832 1069,-155 1069,-155 1069,-155 1163.1623,-155 1163.1623,-155"/>
<polygon fill="#000000" stroke="#000000" points="1163.1623,-158.5001 1173.1623,-155 1163.1622,-151.5001 1163.1623,-158.5001"/>
</g>
<!-- DropdownDirective -->
<g id="node11" class="node">
<title>DropdownDirective</title>
<polygon fill="#ffffb3" stroke="#000000" points="989.9566,-122 862.0434,-122 862.0434,-86 989.9566,-86 989.9566,-122"/>
<text text-anchor="middle" x="926" y="-99.8" font-family="Times,serif" font-size="14.00" fill="#000000">DropdownDirective</text>
</g>
<!-- DropdownDirective&#45;&gt;AppModule -->
<g id="edge11" class="edge">
<title>DropdownDirective&#45;&gt;AppModule</title>
<path fill="none" stroke="#000000" d="M926,-122.0091C926,-138.0494 926,-159 926,-159 926,-159 1163.2856,-159 1163.2856,-159"/>
<polygon fill="#000000" stroke="#000000" points="1163.2856,-162.5001 1173.2856,-159 1163.2855,-155.5001 1163.2856,-162.5001"/>
</g>
<!-- ModalAddrecipesComponent -->
<g id="node12" class="node">
<title>ModalAddrecipesComponent</title>
<polygon fill="#ffffb3" stroke="#000000" points="843.6288,-122 662.3712,-122 662.3712,-86 843.6288,-86 843.6288,-122"/>
<text text-anchor="middle" x="753" y="-99.8" font-family="Times,serif" font-size="14.00" fill="#000000">ModalAddrecipesComponent</text>
</g>
<!-- ModalAddrecipesComponent&#45;&gt;AppModule -->
<g id="edge12" class="edge">
<title>ModalAddrecipesComponent&#45;&gt;AppModule</title>
<path fill="none" stroke="#000000" d="M753,-122.0225C753,-139.3734 753,-163 753,-163 753,-163 1163.1857,-163 1163.1857,-163"/>
<polygon fill="#000000" stroke="#000000" points="1163.1858,-166.5001 1173.1857,-163 1163.1857,-159.5001 1163.1858,-166.5001"/>
</g>
<!-- AppComponent  -->
<g id="node19" class="node">
<title>AppComponent </title>
<polygon fill="#80b1d3" stroke="#000000" points="1269.439,-252 1160.561,-252 1160.561,-216 1269.439,-216 1269.439,-252"/>
<text text-anchor="middle" x="1215" y="-229.8" font-family="Times,serif" font-size="14.00" fill="#000000">AppComponent </text>
</g>
<!-- AppModule&#45;&gt;AppComponent  -->
<g id="edge18" class="edge">
<title>AppModule&#45;&gt;AppComponent </title>
<path fill="none" stroke="#000000" stroke-dasharray="1,5" d="M1215,-187.1061C1215,-187.1061 1215,-205.991 1215,-205.991"/>
<polygon fill="#000000" stroke="#000000" points="1211.5001,-205.9909 1215,-215.991 1218.5001,-205.991 1211.5001,-205.9909"/>
</g>
<!-- BrowserModule -->
<g id="node14" class="node">
<title>BrowserModule</title>
<polygon fill="#8dd3c7" stroke="#000000" points="638.4734,-122 635.4734,-126 614.4734,-126 611.4734,-122 531.5266,-122 531.5266,-86 638.4734,-86 638.4734,-122"/>
<text text-anchor="middle" x="585" y="-99.8" font-family="Times,serif" font-size="14.00" fill="#000000">BrowserModule</text>
</g>
<!-- BrowserModule&#45;&gt;AppModule -->
<g id="edge13" class="edge">
<title>BrowserModule&#45;&gt;AppModule</title>
<path fill="none" stroke="#000000" d="M585,-122.2222C585,-140.8285 585,-167 585,-167 585,-167 1163.176,-167 1163.176,-167"/>
<polygon fill="#000000" stroke="#000000" points="1163.1761,-170.5001 1173.176,-167 1163.176,-163.5001 1163.1761,-170.5001"/>
</g>
<!-- FormsModule -->
<g id="node15" class="node">
<title>FormsModule</title>
<polygon fill="#8dd3c7" stroke="#000000" points="513.8288,-122 510.8288,-126 489.8288,-126 486.8288,-122 418.1712,-122 418.1712,-86 513.8288,-86 513.8288,-122"/>
<text text-anchor="middle" x="466" y="-99.8" font-family="Times,serif" font-size="14.00" fill="#000000">FormsModule</text>
</g>
<!-- FormsModule&#45;&gt;AppModule -->
<g id="edge14" class="edge">
<title>FormsModule&#45;&gt;AppModule</title>
<path fill="none" stroke="#000000" d="M466,-122.308C466,-142.1455 466,-171 466,-171 466,-171 1163.1256,-171 1163.1256,-171"/>
<polygon fill="#000000" stroke="#000000" points="1163.1256,-174.5001 1173.1256,-171 1163.1255,-167.5001 1163.1256,-174.5001"/>
</g>
<!-- HttpModule -->
<g id="node16" class="node">
<title>HttpModule</title>
<polygon fill="#8dd3c7" stroke="#000000" points="400.4387,-122 397.4387,-126 376.4387,-126 373.4387,-122 315.5613,-122 315.5613,-86 400.4387,-86 400.4387,-122"/>
<text text-anchor="middle" x="358" y="-99.8" font-family="Times,serif" font-size="14.00" fill="#000000">HttpModule</text>
</g>
<!-- HttpModule&#45;&gt;AppModule -->
<g id="edge15" class="edge">
<title>HttpModule&#45;&gt;AppModule</title>
<path fill="none" stroke="#000000" d="M358,-122.2843C358,-143.3211 358,-175 358,-175 358,-175 1163.085,-175 1163.085,-175"/>
<polygon fill="#000000" stroke="#000000" points="1163.085,-178.5001 1173.085,-175 1163.0849,-171.5001 1163.085,-178.5001"/>
</g>
<!-- ProductModule -->
<g id="node17" class="node">
<title>ProductModule</title>
<polygon fill="#8dd3c7" stroke="#000000" points="297.5982,-122 294.5982,-126 273.5982,-126 270.5982,-122 194.4018,-122 194.4018,-86 297.5982,-86 297.5982,-122"/>
<text text-anchor="middle" x="246" y="-99.8" font-family="Times,serif" font-size="14.00" fill="#000000">ProductModule</text>
</g>
<!-- ProductModule&#45;&gt;AppModule -->
<g id="edge16" class="edge">
<title>ProductModule&#45;&gt;AppModule</title>
<path fill="none" stroke="#000000" d="M246,-122.1554C246,-144.3519 246,-179 246,-179 246,-179 1163.0523,-179 1163.0523,-179"/>
<polygon fill="#000000" stroke="#000000" points="1163.0523,-182.5001 1173.0523,-179 1163.0522,-175.5001 1163.0523,-182.5001"/>
</g>
<!-- ModalModule.forRoot() -->
<g id="node18" class="node">
<title>ModalModule.forRoot()</title>
<polygon fill="#8dd3c7" stroke="#000000" points="176.4699,-122 173.4699,-126 152.4699,-126 149.4699,-122 23.5301,-122 23.5301,-86 176.4699,-86 176.4699,-122"/>
<text text-anchor="middle" x="100" y="-99.8" font-family="Times,serif" font-size="14.00" fill="#000000">ModalModule.forRoot()</text>
</g>
<!-- ModalModule.forRoot()&#45;&gt;AppModule -->
<g id="edge17" class="edge">
<title>ModalModule.forRoot()&#45;&gt;AppModule</title>
<path fill="none" stroke="#000000" d="M100,-122.3228C100,-145.6602 100,-183 100,-183 100,-183 1163.3257,-183 1163.3257,-183"/>
<polygon fill="#000000" stroke="#000000" points="1163.3257,-186.5001 1173.3257,-183 1163.3256,-179.5001 1163.3257,-186.5001"/>
</g>
</g>
</svg>
