<?xml version="1.0" encoding="UTF-8" standalone="no"?>
<!DOCTYPE svg PUBLIC "-//W3C//DTD SVG 1.1//EN"
 "http://www.w3.org/Graphics/SVG/1.1/DTD/svg11.dtd">
<!-- Generated by graphviz version 2.40.1 (20161225.0304)
 -->
<!-- Title: dependencies Pages: 1 -->
<svg width="545pt" height="284pt"
 viewBox="0.00 0.00 545.00 284.00" xmlns="http://www.w3.org/2000/svg" xmlns:xlink="http://www.w3.org/1999/xlink">
<g id="graph0" class="graph" transform="scale(1 1) rotate(0) translate(4 280)">
<title>dependencies</title>
<polygon fill="#ffffff" stroke="transparent" points="-4,4 -4,-280 541,-280 541,4 -4,4"/>
<text text-anchor="start" x="247.5091" y="-42.4" font-family="sans-serif" font-weight="bold" font-size="14.00" fill="#000000">Legend</text>
<polygon fill="#ffffb3" stroke="transparent" points="34.5,-10 34.5,-30 54.5,-30 54.5,-10 34.5,-10"/>
<text text-anchor="start" x="58.129" y="-15.4" font-family="sans-serif" font-size="14.00" fill="#000000"> &#160;Declarations</text>
<polygon fill="#8dd3c7" stroke="transparent" points="147.5,-10 147.5,-30 167.5,-30 167.5,-10 147.5,-10"/>
<text text-anchor="start" x="171.2251" y="-15.4" font-family="sans-serif" font-size="14.00" fill="#000000"> &#160;Module</text>
<polygon fill="#80b1d3" stroke="transparent" points="233.5,-10 233.5,-30 253.5,-30 253.5,-10 233.5,-10"/>
<text text-anchor="start" x="257.2812" y="-15.4" font-family="sans-serif" font-size="14.00" fill="#000000"> &#160;Bootstrap</text>
<polygon fill="#fdb462" stroke="transparent" points="330.5,-10 330.5,-30 350.5,-30 350.5,-10 330.5,-10"/>
<text text-anchor="start" x="354.1732" y="-15.4" font-family="sans-serif" font-size="14.00" fill="#000000"> &#160;Providers</text>
<polygon fill="#fb8072" stroke="transparent" points="426.5,-10 426.5,-30 446.5,-30 446.5,-10 426.5,-10"/>
<text text-anchor="start" x="450.2258" y="-15.4" font-family="sans-serif" font-size="14.00" fill="#000000"> &#160;Exports</text>
<g id="clust1" class="cluster">
<title>cluster_ProductModule</title>
<polygon fill="none" stroke="#000000" stroke-dasharray="1,5" points="8,-70 8,-268 529,-268 529,-70 8,-70"/>
</g>
<g id="clust2" class="cluster">
<title>cluster_ProductModule_declarations</title>
<polygon fill="none" stroke="#000000" points="375,-78 375,-130 521,-130 521,-78 375,-78"/>
</g>
<g id="clust4" class="cluster">
<title>cluster_ProductModule_imports</title>
<polygon fill="none" stroke="#000000" points="16,-78 16,-130 367,-130 367,-78 16,-78"/>
</g>
<g id="clust5" class="cluster">
<title>cluster_ProductModule_exports</title>
<polygon fill="none" stroke="#000000" points="176,-208 176,-260 326,-260 326,-208 176,-208"/>
</g>
<!-- ProductsComponent -->
<g id="node1" class="node">
<title>ProductsComponent</title>
<polygon fill="#ffffb3" stroke="#000000" points="513.3258,-122 382.6742,-122 382.6742,-86 513.3258,-86 513.3258,-122"/>
<text text-anchor="middle" x="448" y="-99.8" font-family="Times,serif" font-size="14.00" fill="#000000">ProductsComponent</text>
</g>
<!-- ProductModule -->
<g id="node2" class="node">
<title>ProductModule</title>
<polygon fill="#8dd3c7" stroke="#000000" points="302.5982,-187 299.5982,-191 278.5982,-191 275.5982,-187 199.4018,-187 199.4018,-151 302.5982,-151 302.5982,-187"/>
<text text-anchor="middle" x="251" y="-164.8" font-family="Times,serif" font-size="14.00" fill="#000000">ProductModule</text>
</g>
<!-- ProductsComponent&#45;&gt;ProductModule -->
<g id="edge1" class="edge">
<title>ProductsComponent&#45;&gt;ProductModule</title>
<path fill="none" stroke="#000000" d="M448,-122.1061C448,-141.3391 448,-169 448,-169 448,-169 312.7594,-169 312.7594,-169"/>
<polygon fill="#000000" stroke="#000000" points="312.7595,-165.5001 302.7594,-169 312.7594,-172.5001 312.7595,-165.5001"/>
</g>
<!-- ProductsComponent  -->
<g id="node6" class="node">
<title>ProductsComponent </title>
<polygon fill="#fb8072" stroke="#000000" points="317.8255,-252 184.1745,-252 184.1745,-216 317.8255,-216 317.8255,-252"/>
<text text-anchor="middle" x="251" y="-229.8" font-family="Times,serif" font-size="14.00" fill="#000000">ProductsComponent </text>
</g>
<!-- ProductModule&#45;&gt;ProductsComponent  -->
<g id="edge5" class="edge">
<title>ProductModule&#45;&gt;ProductsComponent </title>
<path fill="none" stroke="#000000" stroke-dasharray="5,2" d="M251,-187.1061C251,-187.1061 251,-205.991 251,-205.991"/>
<polygon fill="#000000" stroke="#000000" points="247.5001,-205.9909 251,-215.991 254.5001,-205.991 247.5001,-205.9909"/>
</g>
<!-- ModelModule -->
<g id="node3" class="node">
<title>ModelModule</title>
<polygon fill="#8dd3c7" stroke="#000000" points="359.0997,-122 356.0997,-126 335.0997,-126 332.0997,-122 262.9003,-122 262.9003,-86 359.0997,-86 359.0997,-122"/>
<text text-anchor="middle" x="311" y="-99.8" font-family="Times,serif" font-size="14.00" fill="#000000">ModelModule</text>
</g>
<!-- ModelModule&#45;&gt;ProductModule -->
<g id="edge2" class="edge">
<title>ModelModule&#45;&gt;ProductModule</title>
<path fill="none" stroke="#000000" d="M282.7496,-122.1061C282.7496,-122.1061 282.7496,-140.991 282.7496,-140.991"/>
<polygon fill="#000000" stroke="#000000" points="279.2497,-140.9909 282.7496,-150.991 286.2497,-140.991 279.2497,-140.9909"/>
</g>
<!-- BrowserModule -->
<g id="node4" class="node">
<title>BrowserModule</title>
<polygon fill="#8dd3c7" stroke="#000000" points="244.4734,-122 241.4734,-126 220.4734,-126 217.4734,-122 137.5266,-122 137.5266,-86 244.4734,-86 244.4734,-122"/>
<text text-anchor="middle" x="191" y="-99.8" font-family="Times,serif" font-size="14.00" fill="#000000">BrowserModule</text>
</g>
<!-- BrowserModule&#45;&gt;ProductModule -->
<g id="edge3" class="edge">
<title>BrowserModule&#45;&gt;ProductModule</title>
<path fill="none" stroke="#000000" d="M221.9688,-122.1061C221.9688,-122.1061 221.9688,-140.991 221.9688,-140.991"/>
<polygon fill="#000000" stroke="#000000" points="218.4689,-140.9909 221.9688,-150.991 225.4689,-140.991 218.4689,-140.9909"/>
</g>
<!-- FormsModule -->
<g id="node5" class="node">
<title>FormsModule</title>
<polygon fill="#8dd3c7" stroke="#000000" points="119.8288,-122 116.8288,-126 95.8288,-126 92.8288,-122 24.1712,-122 24.1712,-86 119.8288,-86 119.8288,-122"/>
<text text-anchor="middle" x="72" y="-99.8" font-family="Times,serif" font-size="14.00" fill="#000000">FormsModule</text>
</g>
<!-- FormsModule&#45;&gt;ProductModule -->
<g id="edge4" class="edge">
<title>FormsModule&#45;&gt;ProductModule</title>
<path fill="none" stroke="#000000" d="M72,-122.1061C72,-141.3391 72,-169 72,-169 72,-169 189.2258,-169 189.2258,-169"/>
<polygon fill="#000000" stroke="#000000" points="189.2258,-172.5001 199.2258,-169 189.2257,-165.5001 189.2258,-172.5001"/>
</g>
</g>
</svg>
