<?xml version="1.0" encoding="UTF-8" standalone="no"?>
<!DOCTYPE svg PUBLIC "-//W3C//DTD SVG 1.1//EN"
 "http://www.w3.org/Graphics/SVG/1.1/DTD/svg11.dtd">
<!-- Generated by graphviz version 2.40.1 (20161225.0304)
 -->
<!-- Title: dependencies Pages: 1 -->
<svg width="2923pt" height="423pt"
 viewBox="0.00 0.00 2923.00 423.00" xmlns="http://www.w3.org/2000/svg" xmlns:xlink="http://www.w3.org/1999/xlink">
<g id="graph0" class="graph" transform="scale(1 1) rotate(0) translate(4 419)">
<title>dependencies</title>
<polygon fill="#ffffff" stroke="transparent" points="-4,4 -4,-419 2919,-419 2919,4 -4,4"/>
<text text-anchor="start" x="1436.5091" y="-42.4" font-family="sans-serif" font-weight="bold" font-size="14.00" fill="#000000">Legend</text>
<polygon fill="#ffffb3" stroke="transparent" points="1223.5,-10 1223.5,-30 1243.5,-30 1243.5,-10 1223.5,-10"/>
<text text-anchor="start" x="1247.129" y="-15.4" font-family="sans-serif" font-size="14.00" fill="#000000"> &#160;Declarations</text>
<polygon fill="#8dd3c7" stroke="transparent" points="1336.5,-10 1336.5,-30 1356.5,-30 1356.5,-10 1336.5,-10"/>
<text text-anchor="start" x="1360.2251" y="-15.4" font-family="sans-serif" font-size="14.00" fill="#000000"> &#160;Module</text>
<polygon fill="#80b1d3" stroke="transparent" points="1422.5,-10 1422.5,-30 1442.5,-30 1442.5,-10 1422.5,-10"/>
<text text-anchor="start" x="1446.2812" y="-15.4" font-family="sans-serif" font-size="14.00" fill="#000000"> &#160;Bootstrap</text>
<polygon fill="#fdb462" stroke="transparent" points="1519.5,-10 1519.5,-30 1539.5,-30 1539.5,-10 1519.5,-10"/>
<text text-anchor="start" x="1543.1732" y="-15.4" font-family="sans-serif" font-size="14.00" fill="#000000"> &#160;Providers</text>
<polygon fill="#fb8072" stroke="transparent" points="1615.5,-10 1615.5,-30 1635.5,-30 1635.5,-10 1615.5,-10"/>
<text text-anchor="start" x="1639.2258" y="-15.4" font-family="sans-serif" font-size="14.00" fill="#000000"> &#160;Exports</text>
<g id="clust1" class="cluster">
<title>cluster_AppModule</title>
<polygon fill="none" stroke="#000000" stroke-dasharray="1,5" points="8,-138 8,-407 2526,-407 2526,-138 8,-138"/>
</g>
<g id="clust2" class="cluster">
<title>cluster_AppModule_declarations</title>
<polygon fill="none" stroke="#000000" points="88,-211 88,-263 2002,-263 2002,-211 88,-211"/>
</g>
<g id="clust15" class="cluster">
<title>cluster_AppModule_imports</title>
<polygon fill="none" stroke="#000000" points="2010,-146 2010,-263 2518,-263 2518,-146 2010,-146"/>
</g>
<g id="clust17" class="cluster">
<title>cluster_AppModule_bootstrap</title>
<polygon fill="none" stroke="#000000" points="805,-347 805,-399 929,-399 929,-347 805,-347"/>
</g>
<g id="clust19" class="cluster">
<title>cluster_ModelModule</title>
<polygon fill="none" stroke="#000000" stroke-dasharray="1,5" points="2534,-70 2534,-198 2907,-198 2907,-70 2534,-70"/>
</g>
<g id="clust24" class="cluster">
<title>cluster_ModelModule_providers</title>
<polygon fill="none" stroke="#000000" points="2542,-78 2542,-130 2899,-130 2899,-78 2542,-78"/>
</g>
<g id="clust25" class="cluster">
<title>cluster_ProductModule</title>
<polygon fill="none" stroke="#000000" stroke-dasharray="1,5" points="2534,-271 2534,-339 2854,-339 2854,-271 2534,-271"/>
</g>
<g id="clust26" class="cluster">
<title>cluster_ProductModule_declarations</title>
<polygon fill="none" stroke="#000000" points="2700,-279 2700,-331 2846,-331 2846,-279 2700,-279"/>
</g>
<g id="clust29" class="cluster">
<title>cluster_ProductModule_exports</title>
<polygon fill="none" stroke="#000000" points="2542,-279 2542,-331 2692,-331 2692,-279 2542,-279"/>
</g>
<!-- AppComponent -->
<g id="node1" class="node">
<title>AppComponent</title>
<polygon fill="#ffffb3" stroke="#000000" points="1507.9399,-255 1402.0601,-255 1402.0601,-219 1507.9399,-219 1507.9399,-255"/>
<text text-anchor="middle" x="1455" y="-232.8" font-family="Times,serif" font-size="14.00" fill="#000000">AppComponent</text>
</g>
<!-- AppModule -->
<g id="node13" class="node">
<title>AppModule</title>
<polygon fill="#8dd3c7" stroke="#000000" points="908.6571,-323 905.6571,-327 884.6571,-327 881.6571,-323 825.3429,-323 825.3429,-287 908.6571,-287 908.6571,-323"/>
<text text-anchor="middle" x="867" y="-300.8" font-family="Times,serif" font-size="14.00" fill="#000000">AppModule</text>
</g>
<!-- AppComponent&#45;&gt;AppModule -->
<g id="edge1" class="edge">
<title>AppComponent&#45;&gt;AppModule</title>
<path fill="none" stroke="#000000" d="M1455,-255.2667C1455,-273.5552 1455,-299 1455,-299 1455,-299 918.8161,-299 918.8161,-299"/>
<polygon fill="#000000" stroke="#000000" points="918.8162,-295.5001 908.8161,-299 918.8161,-302.5001 918.8162,-295.5001"/>
</g>
<!-- HeaderComponent -->
<g id="node2" class="node">
<title>HeaderComponent</title>
<polygon fill="#ffffb3" stroke="#000000" points="1383.7437,-255 1262.2563,-255 1262.2563,-219 1383.7437,-219 1383.7437,-255"/>
<text text-anchor="middle" x="1323" y="-232.8" font-family="Times,serif" font-size="14.00" fill="#000000">HeaderComponent</text>
</g>
<!-- HeaderComponent&#45;&gt;AppModule -->
<g id="edge2" class="edge">
<title>HeaderComponent&#45;&gt;AppModule</title>
<path fill="none" stroke="#000000" d="M1323,-255.0225C1323,-272.3734 1323,-296 1323,-296 1323,-296 918.6758,-296 918.6758,-296"/>
<polygon fill="#000000" stroke="#000000" points="918.6758,-292.5001 908.6758,-296 918.6758,-299.5001 918.6758,-292.5001"/>
</g>
<!-- RecipesComponent -->
<g id="node3" class="node">
<title>RecipesComponent</title>
<polygon fill="#ffffb3" stroke="#000000" points="1243.6485,-255 1118.3515,-255 1118.3515,-219 1243.6485,-219 1243.6485,-255"/>
<text text-anchor="middle" x="1181" y="-232.8" font-family="Times,serif" font-size="14.00" fill="#000000">RecipesComponent</text>
</g>
<!-- RecipesComponent&#45;&gt;AppModule -->
<g id="edge3" class="edge">
<title>RecipesComponent&#45;&gt;AppModule</title>
<path fill="none" stroke="#000000" d="M1181,-255.027C1181,-271.3976 1181,-293 1181,-293 1181,-293 918.6968,-293 918.6968,-293"/>
<polygon fill="#000000" stroke="#000000" points="918.6968,-289.5001 908.6968,-293 918.6967,-296.5001 918.6968,-289.5001"/>
</g>
<!-- RecipeListComponent -->
<g id="node4" class="node">
<title>RecipeListComponent</title>
<polygon fill="#ffffb3" stroke="#000000" points="1099.9818,-255 958.0182,-255 958.0182,-219 1099.9818,-219 1099.9818,-255"/>
<text text-anchor="middle" x="1029" y="-232.8" font-family="Times,serif" font-size="14.00" fill="#000000">RecipeListComponent</text>
</g>
<!-- RecipeListComponent&#45;&gt;AppModule -->
<g id="edge4" class="edge">
<title>RecipeListComponent&#45;&gt;AppModule</title>
<path fill="none" stroke="#000000" d="M1029,-255.2396C1029,-270.5706 1029,-290 1029,-290 1029,-290 918.719,-290 918.719,-290"/>
<polygon fill="#000000" stroke="#000000" points="918.7191,-286.5001 908.719,-290 918.719,-293.5001 918.7191,-286.5001"/>
</g>
<!-- RecipeItemComponent -->
<g id="node5" class="node">
<title>RecipeItemComponent</title>
<polygon fill="#ffffb3" stroke="#000000" points="939.8599,-255 794.1401,-255 794.1401,-219 939.8599,-219 939.8599,-255"/>
<text text-anchor="middle" x="867" y="-232.8" font-family="Times,serif" font-size="14.00" fill="#000000">RecipeItemComponent</text>
</g>
<!-- RecipeItemComponent&#45;&gt;AppModule -->
<g id="edge5" class="edge">
<title>RecipeItemComponent&#45;&gt;AppModule</title>
<path fill="none" stroke="#000000" d="M867,-255.2228C867,-255.2228 867,-276.7269 867,-276.7269"/>
<polygon fill="#000000" stroke="#000000" points="863.5001,-276.7269 867,-286.7269 870.5001,-276.727 863.5001,-276.7269"/>
</g>
<!-- RecipeDetailComponent -->
<g id="node6" class="node">
<title>RecipeDetailComponent</title>
<polygon fill="#ffffb3" stroke="#000000" points="776.4115,-255 621.5885,-255 621.5885,-219 776.4115,-219 776.4115,-255"/>
<text text-anchor="middle" x="699" y="-232.8" font-family="Times,serif" font-size="14.00" fill="#000000">RecipeDetailComponent</text>
</g>
<!-- RecipeDetailComponent&#45;&gt;AppModule -->
<g id="edge6" class="edge">
<title>RecipeDetailComponent&#45;&gt;AppModule</title>
<path fill="none" stroke="#000000" d="M699,-255.0336C699,-272.0597 699,-295 699,-295 699,-295 815.0399,-295 815.0399,-295"/>
<polygon fill="#000000" stroke="#000000" points="815.0399,-298.5001 825.0399,-295 815.0398,-291.5001 815.0399,-298.5001"/>
</g>
<!-- ShoppingListComponent -->
<g id="node7" class="node">
<title>ShoppingListComponent</title>
<polygon fill="#ffffb3" stroke="#000000" points="603.2841,-255 446.7159,-255 446.7159,-219 603.2841,-219 603.2841,-255"/>
<text text-anchor="middle" x="525" y="-232.8" font-family="Times,serif" font-size="14.00" fill="#000000">ShoppingListComponent</text>
</g>
<!-- ShoppingListComponent&#45;&gt;AppModule -->
<g id="edge7" class="edge">
<title>ShoppingListComponent&#45;&gt;AppModule</title>
<path fill="none" stroke="#000000" d="M525,-255.1061C525,-274.3391 525,-302 525,-302 525,-302 815.0641,-302 815.0641,-302"/>
<polygon fill="#000000" stroke="#000000" points="815.0641,-305.5001 825.0641,-302 815.0641,-298.5001 815.0641,-305.5001"/>
</g>
<!-- ShoppingListAddComponent -->
<g id="node8" class="node">
<title>ShoppingListAddComponent</title>
<polygon fill="#ffffb3" stroke="#000000" points="428.3906,-255 247.6094,-255 247.6094,-219 428.3906,-219 428.3906,-255"/>
<text text-anchor="middle" x="338" y="-232.8" font-family="Times,serif" font-size="14.00" fill="#000000">ShoppingListAddComponent</text>
</g>
<!-- ShoppingListAddComponent&#45;&gt;AppModule -->
<g id="edge8" class="edge">
<title>ShoppingListAddComponent&#45;&gt;AppModule</title>
<path fill="none" stroke="#000000" d="M338,-255.1686C338,-276.498 338,-309 338,-309 338,-309 815.0481,-309 815.0481,-309"/>
<polygon fill="#000000" stroke="#000000" points="815.0481,-312.5001 825.0481,-309 815.0481,-305.5001 815.0481,-312.5001"/>
</g>
<!-- DirectiveComponent -->
<g id="node9" class="node">
<title>DirectiveComponent</title>
<polygon fill="#ffffb3" stroke="#000000" points="229.9158,-255 96.0842,-255 96.0842,-219 229.9158,-219 229.9158,-255"/>
<text text-anchor="middle" x="163" y="-232.8" font-family="Times,serif" font-size="14.00" fill="#000000">DirectiveComponent</text>
</g>
<!-- DirectiveComponent&#45;&gt;AppModule -->
<g id="edge9" class="edge">
<title>DirectiveComponent&#45;&gt;AppModule</title>
<path fill="none" stroke="#000000" d="M163,-255.3228C163,-278.6602 163,-316 163,-316 163,-316 815.3302,-316 815.3302,-316"/>
<polygon fill="#000000" stroke="#000000" points="815.3303,-319.5001 825.3302,-316 815.3302,-312.5001 815.3303,-319.5001"/>
</g>
<!-- HighlightDirective -->
<g id="node10" class="node">
<title>HighlightDirective</title>
<polygon fill="#ffffb3" stroke="#000000" points="1993.7521,-255 1872.2479,-255 1872.2479,-219 1993.7521,-219 1993.7521,-255"/>
<text text-anchor="middle" x="1933" y="-232.8" font-family="Times,serif" font-size="14.00" fill="#000000">HighlightDirective</text>
</g>
<!-- HighlightDirective&#45;&gt;AppModule -->
<g id="edge10" class="edge">
<title>HighlightDirective&#45;&gt;AppModule</title>
<path fill="none" stroke="#000000" d="M1933,-255.0267C1933,-275.7672 1933,-307 1933,-307 1933,-307 918.7885,-307 918.7885,-307"/>
<polygon fill="#000000" stroke="#000000" points="918.7885,-303.5001 908.7885,-307 918.7884,-310.5001 918.7885,-303.5001"/>
</g>
<!-- DropdownDirective -->
<g id="node11" class="node">
<title>DropdownDirective</title>
<polygon fill="#ffffb3" stroke="#000000" points="1853.9566,-255 1726.0434,-255 1726.0434,-219 1853.9566,-219 1853.9566,-255"/>
<text text-anchor="middle" x="1790" y="-232.8" font-family="Times,serif" font-size="14.00" fill="#000000">DropdownDirective</text>
</g>
<!-- DropdownDirective&#45;&gt;AppModule -->
<g id="edge11" class="edge">
<title>DropdownDirective&#45;&gt;AppModule</title>
<path fill="none" stroke="#000000" d="M1790,-255.308C1790,-275.1455 1790,-304 1790,-304 1790,-304 918.7547,-304 918.7547,-304"/>
<polygon fill="#000000" stroke="#000000" points="918.7547,-300.5001 908.7547,-304 918.7546,-307.5001 918.7547,-300.5001"/>
</g>
<!-- ModalAddrecipesComponent -->
<g id="node12" class="node">
<title>ModalAddrecipesComponent</title>
<polygon fill="#ffffb3" stroke="#000000" points="1707.6288,-255 1526.3712,-255 1526.3712,-219 1707.6288,-219 1707.6288,-255"/>
<text text-anchor="middle" x="1617" y="-232.8" font-family="Times,serif" font-size="14.00" fill="#000000">ModalAddrecipesComponent</text>
</g>
<!-- ModalAddrecipesComponent&#45;&gt;AppModule -->
<g id="edge12" class="edge">
<title>ModalAddrecipesComponent&#45;&gt;AppModule</title>
<path fill="none" stroke="#000000" d="M1617,-255.1686C1617,-274.0898 1617,-301 1617,-301 1617,-301 918.6606,-301 918.6606,-301"/>
<polygon fill="#000000" stroke="#000000" points="918.6606,-297.5001 908.6606,-301 918.6605,-304.5001 918.6606,-297.5001"/>
</g>
<!-- AppComponent  -->
<g id="node19" class="node">
<title>AppComponent </title>
<polygon fill="#80b1d3" stroke="#000000" points="921.439,-391 812.561,-391 812.561,-355 921.439,-355 921.439,-391"/>
<text text-anchor="middle" x="867" y="-368.8" font-family="Times,serif" font-size="14.00" fill="#000000">AppComponent </text>
</g>
<!-- AppModule&#45;&gt;AppComponent  -->
<g id="edge18" class="edge">
<title>AppModule&#45;&gt;AppComponent </title>
<path fill="none" stroke="#000000" stroke-dasharray="1,5" d="M867,-323.2228C867,-323.2228 867,-344.7269 867,-344.7269"/>
<polygon fill="#000000" stroke="#000000" points="863.5001,-344.7269 867,-354.7269 870.5001,-344.727 863.5001,-344.7269"/>
</g>
<!-- BrowserModule -->
<g id="node14" class="node">
<title>BrowserModule</title>
<polygon fill="#8dd3c7" stroke="#000000" points="2510.4734,-190 2507.4734,-194 2486.4734,-194 2483.4734,-190 2403.5266,-190 2403.5266,-154 2510.4734,-154 2510.4734,-190"/>
<text text-anchor="middle" x="2457" y="-167.8" font-family="Times,serif" font-size="14.00" fill="#000000">BrowserModule</text>
</g>
<!-- BrowserModule&#45;&gt;AppModule -->
<g id="edge13" class="edge">
<title>BrowserModule&#45;&gt;AppModule</title>
<path fill="none" stroke="#000000" d="M2403.2667,-172C2398.0171,-172 2394.5887,-172 2394.5887,-172 2394.5887,-172 2394.5887,-318 2394.5887,-318 2394.5887,-318 919.0503,-318 919.0503,-318"/>
<polygon fill="#000000" stroke="#000000" points="919.0503,-314.5001 909.0503,-318 919.0503,-321.5001 919.0503,-314.5001"/>
</g>
<!-- ProductModule -->
<g id="node17" class="node">
<title>ProductModule</title>
<polygon fill="#8dd3c7" stroke="#000000" points="2508.5982,-255 2505.5982,-259 2484.5982,-259 2481.5982,-255 2405.4018,-255 2405.4018,-219 2508.5982,-219 2508.5982,-255"/>
<text text-anchor="middle" x="2457" y="-232.8" font-family="Times,serif" font-size="14.00" fill="#000000">ProductModule</text>
</g>
<!-- BrowserModule&#45;&gt;ProductModule -->
<g id="edge23" class="edge">
<title>BrowserModule&#45;&gt;ProductModule</title>
<path fill="none" stroke="#000000" d="M2457,-190.1061C2457,-190.1061 2457,-208.991 2457,-208.991"/>
<polygon fill="#000000" stroke="#000000" points="2453.5001,-208.9909 2457,-218.991 2460.5001,-208.991 2453.5001,-208.9909"/>
</g>
<!-- FormsModule -->
<g id="node15" class="node">
<title>FormsModule</title>
<polygon fill="#8dd3c7" stroke="#000000" points="2385.8288,-190 2382.8288,-194 2361.8288,-194 2358.8288,-190 2290.1712,-190 2290.1712,-154 2385.8288,-154 2385.8288,-190"/>
<text text-anchor="middle" x="2338" y="-167.8" font-family="Times,serif" font-size="14.00" fill="#000000">FormsModule</text>
</g>
<!-- FormsModule&#45;&gt;AppModule -->
<g id="edge14" class="edge">
<title>FormsModule&#45;&gt;AppModule</title>
<path fill="none" stroke="#000000" d="M2322.112,-190.111C2322.112,-228.5903 2322.112,-315 2322.112,-315 2322.112,-315 918.9794,-315 918.9794,-315"/>
<polygon fill="#000000" stroke="#000000" points="918.9794,-311.5001 908.9794,-315 918.9794,-318.5001 918.9794,-311.5001"/>
</g>
<!-- FormsModule&#45;&gt;ProductModule -->
<g id="edge24" class="edge">
<title>FormsModule&#45;&gt;ProductModule</title>
<path fill="none" stroke="#000000" d="M2353.888,-190.1061C2353.888,-209.3391 2353.888,-237 2353.888,-237 2353.888,-237 2395.444,-237 2395.444,-237"/>
<polygon fill="#000000" stroke="#000000" points="2395.4441,-240.5001 2405.444,-237 2395.444,-233.5001 2395.4441,-240.5001"/>
</g>
<!-- HttpModule -->
<g id="node16" class="node">
<title>HttpModule</title>
<polygon fill="#8dd3c7" stroke="#000000" points="2272.4387,-190 2269.4387,-194 2248.4387,-194 2245.4387,-190 2187.5613,-190 2187.5613,-154 2272.4387,-154 2272.4387,-190"/>
<text text-anchor="middle" x="2230" y="-167.8" font-family="Times,serif" font-size="14.00" fill="#000000">HttpModule</text>
</g>
<!-- HttpModule&#45;&gt;AppModule -->
<g id="edge15" class="edge">
<title>HttpModule&#45;&gt;AppModule</title>
<path fill="none" stroke="#000000" d="M2230,-190.0159C2230,-227.8277 2230,-312 2230,-312 2230,-312 918.9105,-312 918.9105,-312"/>
<polygon fill="#000000" stroke="#000000" points="918.9106,-308.5001 908.9105,-312 918.9105,-315.5001 918.9106,-308.5001"/>
</g>
<!-- ProductModule&#45;&gt;AppModule -->
<g id="edge16" class="edge">
<title>ProductModule&#45;&gt;AppModule</title>
<path fill="none" stroke="#000000" d="M2457,-255.2267C2457,-279.9318 2457,-321 2457,-321 2457,-321 918.7114,-321 918.7114,-321"/>
<polygon fill="#000000" stroke="#000000" points="918.7114,-317.5001 908.7114,-321 918.7113,-324.5001 918.7114,-317.5001"/>
</g>
<!-- ProductsComponent  -->
<g id="node24" class="node">
<title>ProductsComponent </title>
<polygon fill="#fb8072" stroke="#000000" points="2683.8255,-323 2550.1745,-323 2550.1745,-287 2683.8255,-287 2683.8255,-323"/>
<text text-anchor="middle" x="2617" y="-300.8" font-family="Times,serif" font-size="14.00" fill="#000000">ProductsComponent </text>
</g>
<!-- ProductModule&#45;&gt;ProductsComponent  -->
<g id="edge25" class="edge">
<title>ProductModule&#45;&gt;ProductsComponent </title>
<path fill="none" stroke="#000000" stroke-dasharray="5,2" d="M2508.7947,-246C2536.5171,-246 2565.0188,-246 2565.0188,-246 2565.0188,-246 2565.0188,-276.9775 2565.0188,-276.9775"/>
<polygon fill="#000000" stroke="#000000" points="2561.5188,-276.9774 2565.0188,-286.9775 2568.5188,-276.9775 2561.5188,-276.9774"/>
</g>
<!-- ModalModule.forRoot() -->
<g id="node18" class="node">
<title>ModalModule.forRoot()</title>
<polygon fill="#8dd3c7" stroke="#000000" points="2170.4699,-190 2167.4699,-194 2146.4699,-194 2143.4699,-190 2017.5301,-190 2017.5301,-154 2170.4699,-154 2170.4699,-190"/>
<text text-anchor="middle" x="2094" y="-167.8" font-family="Times,serif" font-size="14.00" fill="#000000">ModalModule.forRoot()</text>
</g>
<!-- ModalModule.forRoot()&#45;&gt;AppModule -->
<g id="edge17" class="edge">
<title>ModalModule.forRoot()&#45;&gt;AppModule</title>
<path fill="none" stroke="#000000" d="M2094,-190.0411C2094,-227.4476 2094,-310 2094,-310 2094,-310 918.8812,-310 918.8812,-310"/>
<polygon fill="#000000" stroke="#000000" points="918.8812,-306.5001 908.8812,-310 918.8811,-313.5001 918.8812,-306.5001"/>
</g>
<!-- ProductRepository -->
<g id="node20" class="node">
<title>ProductRepository</title>
<ellipse fill="#fdb462" stroke="#000000" cx="2808" cy="-104" rx="83.4079" ry="18"/>
<text text-anchor="middle" x="2808" y="-99.8" font-family="Times,serif" font-size="14.00" fill="#000000">ProductRepository</text>
</g>
<!-- ModelModule -->
<g id="node22" class="node">
<title>ModelModule</title>
<polygon fill="#8dd3c7" stroke="#000000" points="2676.0997,-190 2673.0997,-194 2652.0997,-194 2649.0997,-190 2579.9003,-190 2579.9003,-154 2676.0997,-154 2676.0997,-190"/>
<text text-anchor="middle" x="2628" y="-167.8" font-family="Times,serif" font-size="14.00" fill="#000000">ModelModule</text>
</g>
<!-- ProductRepository&#45;&gt;ModelModule -->
<g id="edge19" class="edge">
<title>ProductRepository&#45;&gt;ModelModule</title>
<path fill="none" stroke="#000000" d="M2781.3544,-121.1593C2781.3544,-141.3037 2781.3544,-172 2781.3544,-172 2781.3544,-172 2686.1015,-172 2686.1015,-172"/>
<polygon fill="#000000" stroke="#000000" points="2686.1016,-168.5001 2676.1015,-172 2686.1015,-175.5001 2686.1016,-168.5001"/>
</g>
<!-- StaticDataSource -->
<g id="node21" class="node">
<title>StaticDataSource</title>
<ellipse fill="#fdb462" stroke="#000000" cx="2628" cy="-104" rx="78.1424" ry="18"/>
<text text-anchor="middle" x="2628" y="-99.8" font-family="Times,serif" font-size="14.00" fill="#000000">StaticDataSource</text>
</g>
<!-- StaticDataSource&#45;&gt;ModelModule -->
<g id="edge20" class="edge">
<title>StaticDataSource&#45;&gt;ModelModule</title>
<path fill="none" stroke="#000000" d="M2628,-122.2228C2628,-122.2228 2628,-143.7269 2628,-143.7269"/>
<polygon fill="#000000" stroke="#000000" points="2624.5001,-143.7269 2628,-153.7269 2631.5001,-143.727 2624.5001,-143.7269"/>
</g>
<!-- ModelModule&#45;&gt;ProductModule -->
<g id="edge22" class="edge">
<title>ModelModule&#45;&gt;ProductModule</title>
<path fill="none" stroke="#000000" d="M2628,-190.027C2628,-206.3976 2628,-228 2628,-228 2628,-228 2518.7697,-228 2518.7697,-228"/>
<polygon fill="#000000" stroke="#000000" points="2518.7697,-224.5001 2508.7697,-228 2518.7697,-231.5001 2518.7697,-224.5001"/>
</g>
<!-- ProductsComponent -->
<g id="node23" class="node">
<title>ProductsComponent</title>
<polygon fill="#ffffb3" stroke="#000000" points="2838.3258,-323 2707.6742,-323 2707.6742,-287 2838.3258,-287 2838.3258,-323"/>
<text text-anchor="middle" x="2773" y="-300.8" font-family="Times,serif" font-size="14.00" fill="#000000">ProductsComponent</text>
</g>
<!-- ProductsComponent&#45;&gt;ProductModule -->
<g id="edge21" class="edge">
<title>ProductsComponent&#45;&gt;ProductModule</title>
<path fill="none" stroke="#000000" d="M2716.1917,-286.7772C2716.1917,-266.6348 2716.1917,-237 2716.1917,-237 2716.1917,-237 2518.8284,-237 2518.8284,-237"/>
<polygon fill="#000000" stroke="#000000" points="2518.8284,-233.5001 2508.8284,-237 2518.8283,-240.5001 2518.8284,-233.5001"/>
</g>
</g>
</svg>
